<?xml version="1.0" encoding="iso-8859-1"?>
<!-- Updated with custom color palette -->
<svg version="1.1" id="Layer_1" xmlns="http://www.w3.org/2000/svg" xmlns:xlink="http://www.w3.org/1999/xlink" 
	 viewBox="0 0 512 512" xml:space="preserve">
<circle style="fill:#A3B18A;" cx="256" cy="256" r="256"/>
<path style="fill:#93A279;" d="M510.581,283.026L369.778,142.222l-23.486,150.711L195.581,142.222l-28.525,158.722l14.567,69.603
	L315.99,504.915C419.928,479.953,499.188,391.602,510.581,283.026z"/>
<path style="fill:#75875B;" d="M316.419,142.222v135.552c0,33.37-27.052,60.419-60.419,60.419l0,0
	c-33.37,0-60.419-27.052-60.419-60.419V142.222h-53.358v142.222c0,62.838,50.94,113.778,113.778,113.778l0,0
	c62.838,0,113.778-50.94,113.778-113.778V142.222H316.419z"/>
<path style="fill:#5B6A46;" d="M316.419,142.222v135.552c0,33.273-26.896,60.256-60.132,60.413v60.028
	c62.705-0.157,113.49-51.029,113.49-113.771V142.222H316.419z"/>
<rect x="142.222" y="142.222" style="fill:#475239;" width="53.358" height="50.855"/>
<rect x="316.423" y="142.222" style="fill:#3B4331;" width="53.358" height="50.855"/>
</svg>
